<?xml version="1.0" encoding="utf-8"?>
<!-- Generator: Adobe Illustrator 15.0.0, SVG Export Plug-In . SVG Version: 6.00 Build 0)  -->
<!DOCTYPE svg PUBLIC "-//W3C//DTD SVG 1.1//EN" "http://www.w3.org/Graphics/SVG/1.1/DTD/svg11.dtd">
<svg version="1.1" id="Layer_1" xmlns="http://www.w3.org/2000/svg" xmlns:xlink="http://www.w3.org/1999/xlink" x="0px" y="0px"
	 width="2304px" height="2304px" viewBox="0 0 2304 2304" enable-background="new 0 0 2304 2304" xml:space="preserve">
<g>
	<g>
		<g>
			<path fill="#FFCC05" d="M678.229,458.958l-275.985,669.323L128.112,458.958h218.006l57.98,197.596l64.01-197.596H678.229z"/>
			<path fill="#FFCC05" d="M706.523,1092.102v-456.42c0-56.589,17.162-102.814,51.486-138.689
				c34.325-35.868,78.853-53.806,133.586-53.806c64.938,0,114.874,29.845,149.821,89.522c21.336-32.158,44.217-55.118,68.648-68.88
				c24.424-13.756,54.574-20.642,90.449-20.642c56.893,0,100.494,17.938,130.803,53.806c30.303,35.875,45.457,87.514,45.457,154.923
				v440.186h-188.32V680.21c0-20.409-1.623-33.933-4.871-40.586c-3.244-6.646-9.818-9.973-19.711-9.973
				c-18.555,0-27.832,15.771-27.832,47.312v415.138H947.72V680.21c0-20.097-1.704-33.548-5.103-40.354
				c-3.406-6.798-10.052-10.205-19.945-10.205c-18.554,0-27.831,16.858-27.831,50.559v411.892H706.523z"/>
			<path fill="#FFCC05" d="M2148.141,458.958v455.956c0,56.9-17.162,103.284-51.486,139.152
				c-34.322,35.875-78.699,53.805-133.121,53.805c-65.563,0-115.656-29.837-150.285-89.521
				c-21.336,32.164-44.225,55.125-68.648,68.88c-24.432,13.756-54.58,20.641-90.449,20.641c-56.9,0-100.5-17.93-130.803-53.805
				c-30.311-35.868-45.457-87.507-45.457-154.923V458.958h188.318v411.891c0,20.409,1.625,33.861,4.871,40.354
				c3.248,6.494,9.813,9.741,19.713,9.741c18.555,0,27.83-15.611,27.83-46.848V458.958h188.32v411.891
				c0,19.793,1.697,33.092,5.104,39.891c3.398,6.805,10.045,10.205,19.945,10.205c18.553,0,27.83-16.698,27.83-50.095V458.958
				H2148.141z"/>
			<path fill="#FFCC05" d="M593.346,1702.305v183.219H184.237L387.4,1504.246l6.958-12.988c5.566-10.205,8.349-20.25,8.349-30.15
				c0-25.047-14.69-37.57-44.065-37.57c-11.444,0-21.417,4.254-29.918,12.754c-8.508,8.51-12.755,18.482-12.755,29.918
				c0,12.988,5.566,24.744,16.698,35.254l-81.172,144.719c-34.02-21.027-60.147-47.775-78.389-80.246
				c-18.25-32.469-27.367-68.336-27.367-107.611c0-60.914,21.489-113.098,64.474-156.545
				c42.978-43.441,94.928-65.172,155.851-65.172c61.228,0,113.25,21.498,156.083,64.475c42.825,42.986,64.242,95.248,64.242,156.779
				c0,35.252-7.886,68.031-23.656,98.334l-75.142,146.109H593.346z"/>
			<path fill="#FFCC05" d="M683.331,1638.295v-139.152c0-81.012,20.177-145.021,60.531-192.031
				c40.354-47,95.319-70.504,164.896-70.504c69.576,0,124.613,23.504,165.127,70.504c40.507,47.01,60.763,111.02,60.763,192.031
				v139.152c0,81.02-20.256,145.111-60.763,192.262c-40.514,47.162-95.551,70.736-165.127,70.736
				c-69.577,0-124.542-23.574-164.896-70.736C703.507,1783.406,683.331,1719.314,683.331,1638.295z M863.765,1462.035v213.367
				c0,38.658,14.995,57.98,44.993,57.98c30.302,0,45.457-19.322,45.457-57.98v-213.367c0-38.65-15.155-57.979-45.457-57.979
				C878.76,1404.057,863.765,1423.385,863.765,1462.035z"/>
			<path fill="#FFCC05" d="M1539.119,1252.379v633.145h-179.508v-633.145H1539.119z"/>
			<path fill="#FFCC05" d="M2202.875,1252.379l-184.146,633.145h-192.494l143.328-451.318h-193.885v-181.826H2202.875z"/>
		</g>
	</g>
	<g>
		<g>
			<path fill="#CC2036" d="M651.242,418.477L375.255,1087.8l-274.13-669.323h218.005l57.98,197.596l64.01-197.596H651.242z"/>
			<path fill="#CC2036" d="M679.535,1051.62V595.201c0-56.589,17.163-102.813,51.487-138.688
				c34.324-35.868,78.853-53.806,133.586-53.806c64.938,0,114.873,29.845,149.82,89.521c21.337-32.157,44.217-55.118,68.648-68.881
				c24.424-13.755,54.575-20.641,90.45-20.641c56.893,0,100.494,17.938,130.803,53.806c30.301,35.875,45.455,87.514,45.455,154.923
				v440.185h-188.318V639.729c0-20.409-1.623-33.933-4.871-40.586c-3.246-6.646-9.82-9.972-19.712-9.972
				c-18.554,0-27.831,15.771-27.831,47.312v415.138H920.733V639.729c0-20.098-1.704-33.549-5.103-40.354
				c-3.406-6.799-10.052-10.205-19.945-10.205c-18.554,0-27.831,16.857-27.831,50.559v411.891H679.535z"/>
			<path fill="#CC2036" d="M2121.154,418.477v455.956c0,56.9-17.162,103.284-51.486,139.152
				c-34.324,35.875-78.699,53.806-133.123,53.806c-65.561,0-115.654-29.838-150.283-89.521
				c-21.338,32.165-44.225,55.125-68.648,68.881c-24.432,13.756-54.582,20.641-90.449,20.641c-56.9,0-100.502-17.93-130.805-53.806
				c-30.309-35.868-45.455-87.506-45.455-154.923V418.477h188.318v411.891c0,20.409,1.625,33.86,4.871,40.354
				c3.246,6.494,9.813,9.741,19.713,9.741c18.555,0,27.83-15.611,27.83-46.848V418.477h188.32v411.891
				c0,19.793,1.695,33.092,5.102,39.89c3.4,6.806,10.045,10.205,19.945,10.205c18.555,0,27.83-16.698,27.83-50.095V418.477H2121.154
				z"/>
			<path fill="#CC2036" d="M566.358,1661.824v183.217H157.25l203.162-381.277l6.958-12.986c5.566-10.205,8.35-20.25,8.35-30.15
				c0-25.047-14.691-37.57-44.065-37.57c-11.443,0-21.416,4.254-29.917,12.756c-8.509,8.508-12.756,18.48-12.756,29.918
				c0,12.986,5.566,24.742,16.699,35.252l-81.172,144.717c-34.02-21.023-60.147-47.775-78.389-80.244
				c-18.25-32.469-27.367-68.336-27.367-107.611c0-60.914,21.489-113.098,64.474-156.545c42.978-43.443,94.928-65.17,155.851-65.17
				c61.228,0,113.25,21.496,156.083,64.475c42.826,42.984,64.242,95.246,64.242,156.777c0,35.252-7.886,68.033-23.656,98.334
				l-75.142,146.109H566.358z"/>
			<path fill="#CC2036" d="M656.344,1597.814v-139.152c0-81.012,20.177-145.021,60.531-192.029
				c40.354-47,95.32-70.504,164.896-70.504c69.576,0,124.614,23.504,165.127,70.504c40.506,47.008,60.763,111.018,60.763,192.029
				v139.152c0,81.021-20.257,145.109-60.763,192.264c-40.514,47.16-95.552,70.734-165.127,70.734
				c-69.576,0-124.542-23.574-164.896-70.734C676.521,1742.924,656.344,1678.836,656.344,1597.814z M836.778,1421.555v213.367
				c0,38.658,14.995,57.98,44.993,57.98c30.302,0,45.456-19.322,45.456-57.98v-213.367c0-38.65-15.154-57.98-45.456-57.98
				C851.773,1363.574,836.778,1382.904,836.778,1421.555z"/>
			<path fill="#CC2036" d="M1512.131,1211.898v633.143h-179.508v-633.143H1512.131z"/>
			<path fill="#CC2036" d="M2175.889,1211.898l-184.146,633.143h-192.494l143.326-451.316h-193.885v-181.826H2175.889z"/>
		</g>
	</g>
</g>
</svg>
